<svg width="21" height="20" viewBox="0 0 21 20" fill="none" xmlns="http://www.w3.org/2000/svg">
<path fill-rule="evenodd" clip-rule="evenodd" d="M15.4 4.66634H12.474C12.18 3.89301 11.41 3.33301 10.5 3.33301C9.58995 3.33301 8.81995 3.89301 8.52595 4.66634H5.59995C4.82995 4.66634 4.19995 5.26634 4.19995 5.99967V15.333C4.19995 16.0663 4.82995 16.6663 5.59995 16.6663H15.4C16.17 16.6663 16.8 16.0663 16.8 15.333V5.99967C16.8 5.26634 16.17 4.66634 15.4 4.66634ZM10.5 4.66634C10.885 4.66634 11.2 4.96634 11.2 5.33301C11.2 5.69967 10.885 5.99967 10.5 5.99967C10.115 5.99967 9.79995 5.69967 9.79995 5.33301C9.79995 4.96634 10.115 4.66634 10.5 4.66634ZM11.2 13.9997H7.69995C7.31495 13.9997 6.99995 13.6997 6.99995 13.333C6.99995 12.9663 7.31495 12.6663 7.69995 12.6663H11.2C11.585 12.6663 11.9 12.9663 11.9 13.333C11.9 13.6997 11.585 13.9997 11.2 13.9997ZM13.3 11.333H7.69995C7.31495 11.333 6.99995 11.033 6.99995 10.6663C6.99995 10.2997 7.31495 9.99967 7.69995 9.99967H13.3C13.685 9.99967 14 10.2997 14 10.6663C14 11.033 13.685 11.333 13.3 11.333ZM13.3 8.66634H7.69995C7.31495 8.66634 6.99995 8.36634 6.99995 7.99967C6.99995 7.63301 7.31495 7.33301 7.69995 7.33301H13.3C13.685 7.33301 14 7.63301 14 7.99967C14 8.36634 13.685 8.66634 13.3 8.66634Z" />
</svg>
