<svg width="18" height="18" viewBox="0 0 18 18" fill="none" xmlns="http://www.w3.org/2000/svg">
<g clip-path="url(#clip0_64_5060)">
<path fill-rule="evenodd" clip-rule="evenodd" d="M6 1.5C6.41421 1.5 6.75 1.83579 6.75 2.25V3L11.25 3V2.25C11.25 1.83579 11.5858 1.5 12 1.5C12.4142 1.5 12.75 1.83579 12.75 2.25V3H13.5C15.1569 3 16.5 4.34315 16.5 6V15C16.5 15.8284 15.8284 16.5 15 16.5H3C2.17157 16.5 1.5 15.8284 1.5 15V6C1.5 4.34315 2.84315 3 4.5 3H5.25V2.25C5.25 1.83579 5.58579 1.5 6 1.5ZM11.25 4.5V5.25C11.25 5.66421 11.5858 6 12 6C12.4142 6 12.75 5.66421 12.75 5.25V4.5H13.5C14.3284 4.5 15 5.17157 15 6V7.5L3 7.5L3 6C3 5.17157 3.67157 4.5 4.5 4.5H5.25V5.25C5.25 5.66421 5.58579 6 6 6C6.41421 6 6.75 5.66421 6.75 5.25V4.5L11.25 4.5ZM3 9L15 9V15H3L3 9Z" />
</g>
<defs>
<clipPath id="clip0_64_5060">
<rect width="15" height="15" fill="white" transform="translate(1.5 1.5)"/>
</clipPath>
</defs>
</svg>
