<svg width="176" height="176" viewBox="0 0 176 176" fill="none" xmlns="http://www.w3.org/2000/svg">
<mask id="path-1-inside-1_18_559" fill="white">
<path fill-rule="evenodd" clip-rule="evenodd" d="M108.271 137.489C106.636 135.783 104.413 134.743 102.053 134.649C66.3108 133.235 49.5 116.946 49.5 89.375C49.5 60.5 67.9382 44 107.25 44C146.562 44 165 60.5 165 89.375C165 106.602 158.437 119.424 144.795 126.965C141.329 128.882 139.119 132.655 139.828 136.552L141.232 144.274C142.152 149.338 138.202 154.043 133.203 152.813C122.741 150.24 114.377 143.863 108.271 137.489Z"/>
</mask>
<path fill-rule="evenodd" clip-rule="evenodd" d="M108.271 137.489C106.636 135.783 104.413 134.743 102.053 134.649C66.3108 133.235 49.5 116.946 49.5 89.375C49.5 60.5 67.9382 44 107.25 44C146.562 44 165 60.5 165 89.375C165 106.602 158.437 119.424 144.795 126.965C141.329 128.882 139.119 132.655 139.828 136.552L141.232 144.274C142.152 149.338 138.202 154.043 133.203 152.813C122.741 150.24 114.377 143.863 108.271 137.489Z" fill="#FFF4D9"/>
<path d="M141.232 144.274L149.349 142.798L141.232 144.274ZM133.203 152.813L135.174 144.802H135.174L133.203 152.813ZM144.795 126.965L140.804 119.745L144.795 126.965ZM139.828 136.552L147.945 135.076L139.828 136.552ZM102.053 134.649L102.379 126.406L102.053 134.649ZM108.271 137.489L102.313 143.196L108.271 137.489ZM57.75 89.375C57.75 101.407 61.3503 109.882 67.8495 115.651C74.5644 121.61 85.5582 125.74 102.379 126.406L101.726 142.893C82.8051 142.144 67.5227 137.422 56.8968 127.991C46.0551 118.369 41.25 104.914 41.25 89.375H57.75ZM107.25 52.25C88.5582 52.25 76.2989 56.201 68.8341 62.2635C61.6754 68.0773 57.75 76.8006 57.75 89.375H41.25C41.25 73.0744 46.5438 59.1102 58.4321 49.4553C70.0143 40.049 86.63 35.75 107.25 35.75V52.25ZM156.75 89.375C156.75 76.8006 152.825 68.0773 145.666 62.2635C138.201 56.201 125.942 52.25 107.25 52.25V35.75C127.87 35.75 144.486 40.049 156.068 49.4553C167.956 59.1102 173.25 73.0744 173.25 89.375H156.75ZM140.804 119.745C151.337 113.922 156.75 104.193 156.75 89.375H173.25C173.25 109.011 165.538 124.925 148.786 134.186L140.804 119.745ZM133.115 145.75L131.711 138.028L147.945 135.076L149.349 142.798L133.115 145.75ZM135.174 144.802C134.948 144.746 134.558 144.729 134.125 144.871C133.722 145.003 133.459 145.214 133.319 145.37C133.069 145.646 133.125 145.804 133.115 145.75L149.349 142.798C150.259 147.808 148.8 152.851 145.556 156.438C142.195 160.153 136.921 162.223 131.233 160.825L135.174 144.802ZM114.228 131.782C119.715 137.509 126.773 142.736 135.174 144.802L131.233 160.825C118.709 157.744 109.039 150.218 102.313 143.196L114.228 131.782ZM148.786 134.186C148.385 134.408 148.13 134.703 148.013 134.92C147.96 135.019 147.948 135.077 147.946 135.09C147.945 135.096 147.945 135.095 147.945 135.089C147.945 135.086 147.945 135.083 147.945 135.08C147.945 135.077 147.944 135.076 147.945 135.076L131.711 138.028C130.252 130.004 134.851 123.036 140.804 119.745L148.786 134.186ZM102.379 126.406C106.963 126.587 111.179 128.599 114.228 131.782L102.313 143.196C102.094 142.967 101.863 142.898 101.726 142.893L102.379 126.406Z" fill="black" mask="url(#path-1-inside-1_18_559)"/>
<mask id="path-3-inside-2_18_559" fill="white">
<path fill-rule="evenodd" clip-rule="evenodd" d="M72.875 121C114.995 121 134.75 103 134.75 71.5C134.75 40 114.995 22 72.875 22C30.7553 22 11 40 11 71.5C11 89.9 17.7405 103.694 31.7417 111.984C35.049 113.943 37.113 117.629 36.4254 121.411L34.7683 130.524C33.8476 135.588 37.7983 140.293 42.7965 139.063C53.6996 136.382 62.3233 129.57 68.4883 122.934C69.623 121.713 71.2078 121 72.875 121Z"/>
</mask>
<path fill-rule="evenodd" clip-rule="evenodd" d="M72.875 121C114.995 121 134.75 103 134.75 71.5C134.75 40 114.995 22 72.875 22C30.7553 22 11 40 11 71.5C11 89.9 17.7405 103.694 31.7417 111.984C35.049 113.943 37.113 117.629 36.4254 121.411L34.7683 130.524C33.8476 135.588 37.7983 140.293 42.7965 139.063C53.6996 136.382 62.3233 129.57 68.4883 122.934C69.623 121.713 71.2078 121 72.875 121Z" fill="#0FA958"/>
<path d="M34.7683 130.524L42.8853 132L34.7683 130.524ZM42.7965 139.063L40.8262 131.052H40.8262L42.7965 139.063ZM68.4883 122.934L74.5323 128.55L68.4883 122.934ZM31.7417 111.984L35.9452 104.885L31.7417 111.984ZM36.4254 121.411L28.3084 119.935L36.4254 121.411ZM126.5 71.5C126.5 85.4377 122.211 95.2048 114.35 101.705C106.21 108.436 92.9428 112.75 72.875 112.75V129.25C94.9269 129.25 112.598 124.564 124.865 114.42C137.412 104.045 143 89.0623 143 71.5H126.5ZM72.875 30.25C92.9428 30.25 106.21 34.564 114.35 41.2954C122.211 47.7953 126.5 57.5623 126.5 71.5H143C143 53.9377 137.412 38.9547 124.865 28.5796C112.598 18.436 94.9269 13.75 72.875 13.75V30.25ZM19.25 71.5C19.25 57.5623 23.5394 47.7953 31.3999 41.2954C39.5404 34.564 52.8072 30.25 72.875 30.25V13.75C50.8231 13.75 33.1523 18.436 20.8853 28.5796C8.33821 38.9547 2.75 53.9377 2.75 71.5H19.25ZM35.9452 104.885C24.9669 98.3848 19.25 87.6372 19.25 71.5H2.75C2.75 92.1627 10.5142 109.003 27.5382 119.083L35.9452 104.885ZM42.8853 132L44.5423 122.886L28.3084 119.935L26.6514 129.048L42.8853 132ZM40.8262 131.052C41.0523 130.996 41.4424 130.979 41.875 131.121C42.2785 131.253 42.5407 131.464 42.6812 131.62C42.9309 131.896 42.8754 132.054 42.8853 132L26.6514 129.048C25.7405 134.058 27.2 139.101 30.4444 142.688C33.8047 146.403 39.0795 148.473 44.7669 147.075L40.8262 131.052ZM62.4442 117.319C56.881 123.307 49.5865 128.898 40.8262 131.052L44.7669 147.075C57.8127 143.866 67.7657 135.833 74.5323 128.55L62.4442 117.319ZM74.5323 128.55C74.1574 128.953 73.5754 129.25 72.875 129.25V112.75C68.8402 112.75 65.0887 114.473 62.4442 117.319L74.5323 128.55ZM27.5382 119.083C27.9097 119.303 28.1411 119.585 28.2459 119.789C28.3357 119.963 28.2978 119.993 28.3084 119.935L44.5423 122.886C45.9563 115.109 41.6607 108.27 35.9452 104.885L27.5382 119.083Z" fill="black" mask="url(#path-3-inside-2_18_559)"/>
<circle cx="52.25" cy="71.5" r="5.5" fill="black"/>
<circle cx="71.5" cy="71.5" r="5.5" fill="black"/>
<circle cx="90.75" cy="71.5" r="5.5" fill="black"/>
</svg>
