<svg width="48" height="48" viewBox="0 0 48 48" fill="none" xmlns="http://www.w3.org/2000/svg">
<mask id="path-1-outside-1_18_181" maskUnits="userSpaceOnUse" x="3.91968" y="2.25" width="40" height="43" fill="black">
<rect fill="white" x="3.91968" y="2.25" width="40" height="43"/>
<path fill-rule="evenodd" clip-rule="evenodd" d="M20.6968 7.14452C20.8714 6.05299 21.8131 5.25 22.9185 5.25H25.0813C26.1867 5.25 27.1284 6.05299 27.303 7.14452L28.0658 11.912C29.6927 12.459 31.1729 13.3252 32.432 14.4361L36.9456 12.7117C37.9782 12.3171 39.1445 12.7312 39.6972 13.6885L40.7786 15.5615C41.3313 16.5188 41.1067 17.7358 40.2488 18.4328L36.5006 21.4778C36.6642 22.2931 36.75 23.1365 36.75 24C36.75 24.8634 36.6642 25.7068 36.5006 26.5221L40.2488 29.5671C41.1067 30.2641 41.3313 31.4811 40.7786 32.4385L39.6972 34.3115C39.1445 35.2688 37.9783 35.6828 36.9456 35.2883L32.432 33.5638C31.1729 34.6748 29.6927 35.541 28.0658 36.088L27.303 40.8555C27.1284 41.947 26.1867 42.75 25.0813 42.75H22.9185C21.8131 42.75 20.8714 41.947 20.6968 40.8555L19.934 36.0879C18.3072 35.541 16.827 34.6748 15.5679 33.5638L11.0542 35.2883C10.0216 35.6828 8.85534 35.2688 8.30263 34.3115L7.22125 32.4385C6.66854 31.4812 6.89311 30.2641 7.75108 29.5671L11.4994 26.522C11.3358 25.7068 11.25 24.8634 11.25 24C11.25 23.1366 11.3358 22.2932 11.4994 21.4779L7.75109 18.4328C6.89312 17.7358 6.66855 16.5188 7.22125 15.5615L8.30264 13.6885C8.85534 12.7311 10.0216 12.3171 11.0542 12.7116L15.568 14.4362C16.827 13.3252 18.3072 12.459 19.934 11.9121L20.6968 7.14452ZM24 32.25C28.5563 32.25 32.25 28.5563 32.25 24C32.25 19.4437 28.5563 15.75 24 15.75C19.4437 15.75 15.75 19.4437 15.75 24C15.75 28.5563 19.4437 32.25 24 32.25Z"/>
</mask>
<path fill-rule="evenodd" clip-rule="evenodd" d="M20.6968 7.14452C20.8714 6.05299 21.8131 5.25 22.9185 5.25H25.0813C26.1867 5.25 27.1284 6.05299 27.303 7.14452L28.0658 11.912C29.6927 12.459 31.1729 13.3252 32.432 14.4361L36.9456 12.7117C37.9782 12.3171 39.1445 12.7312 39.6972 13.6885L40.7786 15.5615C41.3313 16.5188 41.1067 17.7358 40.2488 18.4328L36.5006 21.4778C36.6642 22.2931 36.75 23.1365 36.75 24C36.75 24.8634 36.6642 25.7068 36.5006 26.5221L40.2488 29.5671C41.1067 30.2641 41.3313 31.4811 40.7786 32.4385L39.6972 34.3115C39.1445 35.2688 37.9783 35.6828 36.9456 35.2883L32.432 33.5638C31.1729 34.6748 29.6927 35.541 28.0658 36.088L27.303 40.8555C27.1284 41.947 26.1867 42.75 25.0813 42.75H22.9185C21.8131 42.75 20.8714 41.947 20.6968 40.8555L19.934 36.0879C18.3072 35.541 16.827 34.6748 15.5679 33.5638L11.0542 35.2883C10.0216 35.6828 8.85534 35.2688 8.30263 34.3115L7.22125 32.4385C6.66854 31.4812 6.89311 30.2641 7.75108 29.5671L11.4994 26.522C11.3358 25.7068 11.25 24.8634 11.25 24C11.25 23.1366 11.3358 22.2932 11.4994 21.4779L7.75109 18.4328C6.89312 17.7358 6.66855 16.5188 7.22125 15.5615L8.30264 13.6885C8.85534 12.7311 10.0216 12.3171 11.0542 12.7116L15.568 14.4362C16.827 13.3252 18.3072 12.459 19.934 11.9121L20.6968 7.14452ZM24 32.25C28.5563 32.25 32.25 28.5563 32.25 24C32.25 19.4437 28.5563 15.75 24 15.75C19.4437 15.75 15.75 19.4437 15.75 24C15.75 28.5563 19.4437 32.25 24 32.25Z" fill="#699BF7"/>
<path d="M20.6968 7.14452L18.4751 6.78904V6.78904L20.6968 7.14452ZM27.303 7.14452L25.0813 7.5V7.5L27.303 7.14452ZM28.0658 11.912L25.8441 12.2675L26.0591 13.6111L27.3488 14.0447L28.0658 11.912ZM32.432 14.4361L30.9434 16.1233L31.9638 17.0236L33.235 16.5379L32.432 14.4361ZM36.9456 12.7117L37.7486 14.8135V14.8135L36.9456 12.7117ZM39.6972 13.6885L37.7486 14.8135V14.8135L39.6972 13.6885ZM40.7786 15.5615L42.7271 14.4365L42.7271 14.4365L40.7786 15.5615ZM40.2488 18.4328L38.83 16.6865L38.83 16.6865L40.2488 18.4328ZM36.5006 21.4778L35.0819 19.7315L34.0272 20.5883L34.2945 21.9205L36.5006 21.4778ZM36.5006 26.5221L34.2946 26.0795L34.0272 27.4117L35.0819 28.2685L36.5006 26.5221ZM40.2488 29.5671L41.6675 27.8208V27.8208L40.2488 29.5671ZM40.7786 32.4385L38.83 31.3135L38.83 31.3135L40.7786 32.4385ZM39.6972 34.3115L41.6458 35.4365L39.6972 34.3115ZM36.9456 35.2883L36.1426 37.3901H36.1426L36.9456 35.2883ZM32.432 33.5638L33.2351 31.462L31.9638 30.9763L30.9434 31.8767L32.432 33.5638ZM28.0658 36.088L27.3488 33.9553L26.0591 34.3889L25.8441 35.7325L28.0658 36.088ZM27.303 40.8555L25.0813 40.5L25.0813 40.5L27.303 40.8555ZM20.6968 40.8555L18.4751 41.211L20.6968 40.8555ZM19.934 36.0879L22.1557 35.7325L21.9408 34.3889L20.6511 33.9553L19.934 36.0879ZM15.5679 33.5638L17.0566 31.8767L16.0361 30.9763L14.7649 31.462L15.5679 33.5638ZM11.0542 35.2883L11.8572 37.3901H11.8572L11.0542 35.2883ZM8.30263 34.3115L6.35408 35.4365H6.35408L8.30263 34.3115ZM7.22125 32.4385L5.27269 33.5635H5.27269L7.22125 32.4385ZM7.75108 29.5671L6.33236 27.8208H6.33236L7.75108 29.5671ZM11.4994 26.522L12.9181 28.2684L13.9727 27.4116L13.7054 26.0794L11.4994 26.522ZM11.4994 21.4779L13.7054 21.9206L13.9727 20.5884L12.9181 19.7316L11.4994 21.4779ZM7.75109 18.4328L9.16981 16.6865H9.16981L7.75109 18.4328ZM7.22125 15.5615L9.16981 16.6865H9.16981L7.22125 15.5615ZM8.30264 13.6885L6.35408 12.5635L6.35408 12.5635L8.30264 13.6885ZM11.0542 12.7116L10.2512 14.8135H10.2512L11.0542 12.7116ZM15.568 14.4362L14.7649 16.538L16.0362 17.0237L17.0566 16.1233L15.568 14.4362ZM19.934 11.9121L20.6511 14.0447L21.9408 13.6111L22.1557 12.2675L19.934 11.9121ZM22.9185 3C20.7077 3 18.8243 4.60598 18.4751 6.78904L22.9185 7.5V7.5V3ZM25.0813 3H22.9185V7.5H25.0813V3ZM29.5248 6.78904C29.1755 4.60598 27.2921 3 25.0813 3V7.5V7.5L29.5248 6.78904ZM30.2876 11.5565L29.5248 6.78904L25.0813 7.5L25.8441 12.2675L30.2876 11.5565ZM33.9206 12.749C32.4409 11.4433 30.6994 10.4237 28.7829 9.77932L27.3488 14.0447C28.686 14.4943 29.9049 15.207 30.9434 16.1233L33.9206 12.749ZM36.1426 10.6098L31.629 12.3343L33.235 16.5379L37.7486 14.8135L36.1426 10.6098ZM41.6458 12.5635C40.5403 10.6488 38.2078 9.8208 36.1426 10.6098L37.7486 14.8135L41.6458 12.5635ZM42.7271 14.4365L41.6458 12.5635L37.7486 14.8135L38.83 16.6865L42.7271 14.4365ZM41.6675 20.1792C43.3834 18.7852 43.8326 16.3511 42.7271 14.4365L38.83 16.6865V16.6865L41.6675 20.1792ZM37.9193 23.2242L41.6675 20.1792L38.83 16.6865L35.0819 19.7315L37.9193 23.2242ZM39 24C39 22.9871 38.8993 21.9954 38.7066 21.0352L34.2945 21.9205C34.4291 22.5909 34.5 23.286 34.5 24H39ZM38.7066 26.9648C38.8993 26.0046 39 25.0129 39 24H34.5C34.5 24.714 34.4291 25.4091 34.2946 26.0795L38.7066 26.9648ZM41.6675 27.8208L37.9193 24.7758L35.0819 28.2685L38.83 31.3135L41.6675 27.8208ZM42.7271 33.5635C43.8326 31.6488 43.3834 29.2148 41.6675 27.8208L38.83 31.3135H38.83L42.7271 33.5635ZM41.6458 35.4365L42.7271 33.5635L38.83 31.3135L37.7486 33.1865L41.6458 35.4365ZM36.1426 37.3901C38.2079 38.1792 40.5404 37.3511 41.6458 35.4365L37.7486 33.1865L36.1426 37.3901ZM31.629 35.6657L36.1426 37.3901L37.7487 33.1865L33.2351 31.462L31.629 35.6657ZM28.7829 38.2207C30.6994 37.5763 32.4409 36.5567 33.9207 35.251L30.9434 31.8767C29.9049 32.793 28.686 33.5057 27.3488 33.9553L28.7829 38.2207ZM29.5248 41.211L30.2876 36.4435L25.8441 35.7325L25.0813 40.5L29.5248 41.211ZM25.0813 45C27.2921 45 29.1755 43.394 29.5248 41.211L25.0813 40.5H25.0813V45ZM22.9185 45H25.0813V40.5H22.9185V45ZM18.4751 41.211C18.8243 43.394 20.7077 45 22.9185 45V40.5L18.4751 41.211ZM17.7122 36.4434L18.4751 41.211L22.9185 40.5L22.1557 35.7325L17.7122 36.4434ZM14.0793 35.251C15.559 36.5566 17.3004 37.5762 19.2169 38.2206L20.6511 33.9553C19.3139 33.5057 18.095 32.7929 17.0566 31.8767L14.0793 35.251ZM11.8572 37.3901L16.3709 35.6656L14.7649 31.462L10.2512 33.1865L11.8572 37.3901ZM6.35408 35.4365C7.45949 37.3511 9.79199 38.1792 11.8572 37.3901L10.2512 33.1865H10.2512L6.35408 35.4365ZM5.27269 33.5635L6.35408 35.4365L10.2512 33.1865L9.16981 31.3135L5.27269 33.5635ZM6.33236 27.8208C4.61642 29.2148 4.16728 31.6488 5.27269 33.5635L9.16981 31.3135L6.33236 27.8208ZM10.0807 24.7757L6.33236 27.8208L9.16981 31.3135L12.9181 28.2684L10.0807 24.7757ZM9 24C9 25.0129 9.10071 26.0045 9.29337 26.9647L13.7054 26.0794C13.5709 25.4091 13.5 24.714 13.5 24H9ZM9.29338 21.0353C9.10071 21.9955 9 22.9871 9 24H13.5C13.5 23.286 13.5709 22.5909 13.7054 21.9206L9.29338 21.0353ZM6.33236 20.1792L10.0807 23.2243L12.9181 19.7316L9.16981 16.6865L6.33236 20.1792ZM5.2727 14.4365C4.16728 16.3511 4.61642 18.7851 6.33236 20.1792L9.16981 16.6865H9.16981L5.2727 14.4365ZM6.35408 12.5635L5.2727 14.4365L9.16981 16.6865L10.2512 14.8135L6.35408 12.5635ZM11.8572 10.6098C9.79199 9.82078 7.45949 10.6488 6.35408 12.5635L10.2512 14.8135H10.2512L11.8572 10.6098ZM16.371 12.3343L11.8572 10.6098L10.2512 14.8135L14.7649 16.538L16.371 12.3343ZM19.2169 9.77938C17.3005 10.4238 15.5591 11.4434 14.0793 12.749L17.0566 16.1233C18.095 15.2071 19.3139 14.4943 20.6511 14.0447L19.2169 9.77938ZM18.4751 6.78904L17.7123 11.5566L22.1557 12.2675L22.9185 7.5L18.4751 6.78904ZM30 24C30 27.3137 27.3137 30 24 30V34.5C29.799 34.5 34.5 29.799 34.5 24H30ZM24 18C27.3137 18 30 20.6863 30 24H34.5C34.5 18.201 29.799 13.5 24 13.5V18ZM18 24C18 20.6863 20.6863 18 24 18V13.5C18.201 13.5 13.5 18.201 13.5 24H18ZM24 30C20.6863 30 18 27.3137 18 24H13.5C13.5 29.799 18.201 34.5 24 34.5V30Z" fill="black" mask="url(#path-1-outside-1_18_181)"/>
</svg>
