<svg width="18" height="18" viewBox="0 0 18 18" fill="none" xmlns="http://www.w3.org/2000/svg">
<path d="M12.7778 5.22222H12.7822M12.7778 12.7778H12.7822M5.22222 5.22222H5.22667M9 8.77778H9.00444M5.22222 12.7778H5.22667M5.26667 17H12.7333C14.2268 17 14.9735 17 15.544 16.7093C16.0458 16.4537 16.4537 16.0458 16.7093 15.544C17 14.9735 17 14.2268 17 12.7333V5.26667C17 3.77319 17 3.02645 16.7093 2.45603C16.4537 1.95426 16.0458 1.54631 15.544 1.29065C14.9735 1 14.2268 1 12.7333 1H5.26667C3.77319 1 3.02645 1 2.45603 1.29065C1.95426 1.54631 1.54631 1.95426 1.29065 2.45603C1 3.02645 1 3.77319 1 5.26667V12.7333C1 14.2268 1 14.9735 1.29065 15.544C1.54631 16.0458 1.95426 16.4537 2.45603 16.7093C3.02645 17 3.77319 17 5.26667 17ZM13 5.22222C13 5.34495 12.9005 5.44444 12.7778 5.44444C12.655 5.44444 12.5556 5.34495 12.5556 5.22222C12.5556 5.09949 12.655 5 12.7778 5C12.9005 5 13 5.09949 13 5.22222ZM13 12.7778C13 12.9005 12.9005 13 12.7778 13C12.655 13 12.5556 12.9005 12.5556 12.7778C12.5556 12.655 12.655 12.5556 12.7778 12.5556C12.9005 12.5556 13 12.655 13 12.7778ZM5.44444 5.22222C5.44444 5.34495 5.34495 5.44444 5.22222 5.44444C5.09949 5.44444 5 5.34495 5 5.22222C5 5.09949 5.09949 5 5.22222 5C5.34495 5 5.44444 5.09949 5.44444 5.22222ZM9.22222 8.77778C9.22222 8.90053 9.12276 9 9 9C8.87724 9 8.77778 8.90053 8.77778 8.77778C8.77778 8.65502 8.87724 8.55556 9 8.55556C9.12276 8.55556 9.22222 8.65502 9.22222 8.77778ZM5.44444 12.7778C5.44444 12.9005 5.34495 13 5.22222 13C5.09949 13 5 12.9005 5 12.7778C5 12.655 5.09949 12.5556 5.22222 12.5556C5.34495 12.5556 5.44444 12.655 5.44444 12.7778Z"  stroke-width="1.77778" stroke-linecap="round" stroke-linejoin="round"/>
</svg>
