<svg width="18" height="18" viewBox="0 0 18 18" fill="none" xmlns="http://www.w3.org/2000/svg">
<path d="M11.8889 6.11111H11.8933M6.11111 11.8889H6.11556M5.26667 17H12.7333C14.2268 17 14.9735 17 15.544 16.7093C16.0458 16.4537 16.4537 16.0458 16.7093 15.544C17 14.9735 17 14.2268 17 12.7333V5.26667C17 3.77319 17 3.02645 16.7093 2.45603C16.4537 1.95426 16.0458 1.54631 15.544 1.29065C14.9735 1 14.2268 1 12.7333 1H5.26667C3.77319 1 3.02645 1 2.45603 1.29065C1.95426 1.54631 1.54631 1.95426 1.29065 2.45603C1 3.02645 1 3.77319 1 5.26667V12.7333C1 14.2268 1 14.9735 1.29065 15.544C1.54631 16.0458 1.95426 16.4537 2.45603 16.7093C3.02645 17 3.77319 17 5.26667 17ZM12.1111 6.11111C12.1111 6.23384 12.0116 6.33333 11.8889 6.33333C11.7661 6.33333 11.6667 6.23384 11.6667 6.11111C11.6667 5.98838 11.7661 5.88889 11.8889 5.88889C12.0116 5.88889 12.1111 5.98838 12.1111 6.11111ZM6.33333 11.8889C6.33333 12.0116 6.23384 12.1111 6.11111 12.1111C5.98838 12.1111 5.88889 12.0116 5.88889 11.8889C5.88889 11.7661 5.98838 11.6667 6.11111 11.6667C6.23384 11.6667 6.33333 11.7661 6.33333 11.8889Z"  stroke-width="1.77778" stroke-linecap="round" stroke-linejoin="round"/>
</svg>
