<svg width="26" height="26" viewBox="0 0 26 26" fill="none" xmlns="http://www.w3.org/2000/svg">
<path d="M9.75 22.75V14.7334C9.75 14.1267 9.75 13.8233 9.86808 13.5916C9.97194 13.3877 10.1377 13.222 10.3415 13.1181C10.5732 13 10.8766 13 11.4833 13H14.5167C15.1234 13 15.4268 13 15.6585 13.1181C15.8623 13.222 16.0281 13.3877 16.1319 13.5916C16.25 13.8233 16.25 14.1267 16.25 14.7334V22.75M11.9358 2.99439L4.58834 8.70911C4.09719 9.09112 3.85161 9.28212 3.6747 9.52132C3.51798 9.73321 3.40123 9.97191 3.3302 10.2257C3.25 10.5122 3.25 10.8233 3.25 11.4455V19.2834C3.25 20.4968 3.25 21.1035 3.48615 21.567C3.69388 21.9747 4.02534 22.3062 4.43302 22.5139C4.8965 22.75 5.50322 22.75 6.71667 22.75H19.2833C20.4968 22.75 21.1035 22.75 21.567 22.5139C21.9747 22.3062 22.3061 21.9747 22.5138 21.567C22.75 21.1035 22.75 20.4968 22.75 19.2834V11.4455C22.75 10.8233 22.75 10.5122 22.6698 10.2257C22.5988 9.97191 22.482 9.73321 22.3253 9.52132C22.1484 9.28212 21.9028 9.09112 21.4117 8.70911L14.0642 2.99439C13.6836 2.69837 13.4933 2.55036 13.2831 2.49346C13.0977 2.44326 12.9023 2.44326 12.7169 2.49346C12.5067 2.55036 12.3164 2.69837 11.9358 2.99439Z" stroke-width="2" stroke-linecap="round" stroke-linejoin="round"/>
</svg>
