<svg width="159" height="150" viewBox="0 0 159 150" fill="none" xmlns="http://www.w3.org/2000/svg">
<path fill-rule="evenodd" clip-rule="evenodd" d="M84 150C125.421 150 159 116.421 159 75C159 33.5786 125.421 0 84 0C42.5786 0 9 33.5786 9 75C9 116.421 42.5786 150 84 150Z" fill="#0097A7"/>
<path fill-rule="evenodd" clip-rule="evenodd" d="M135.344 129.67C121.926 142.277 103.865 150 84 150C64.3733 150 46.5075 142.461 33.1403 130.121C33.2601 129.761 33.3835 129.4 33.5104 129.038C35.9534 122.074 36.5306 116.952 49.2916 111.955C62.0527 106.958 102.078 106.84 116.753 111.395C131.428 115.95 132.947 123.084 135.012 128.713C135.126 129.024 135.237 129.344 135.344 129.67V129.67Z" fill="#01579B"/>
<path fill-rule="evenodd" clip-rule="evenodd" d="M63.0442 109.131C75.6384 107.719 92.4658 107.747 104.956 109.181C104.956 109.184 104.956 109.188 104.956 109.191C104.956 117.11 95.5736 134.559 83.9999 134.559C72.4263 134.559 63.0441 117.11 63.0441 109.191C63.0441 109.171 63.0441 109.151 63.0442 109.131Z" fill="#FFCC80"/>
<path fill-rule="evenodd" clip-rule="evenodd" d="M57.3387 58.8071C60.4573 44.6378 71.212 34.1914 84 34.1914C96.8279 34.1914 107.61 44.7032 110.69 58.9401C111.067 58.7692 111.499 58.6991 111.996 58.7445C114.986 59.0183 114.948 62.9683 114.523 67.8229C114.104 72.6137 112.326 76.3836 110.53 76.3287C108.159 86.3547 101.949 94.4429 93.9264 98.1589V110.298C93.9264 115.778 89.4834 120.221 84 120.221C78.5177 120.221 74.0735 115.785 74.0735 110.298V98.1589C66.036 94.4359 59.817 86.3241 57.4569 76.2719C55.8123 75.7836 54.2728 72.2365 53.8866 67.8229C53.4619 62.9683 53.4234 59.0183 56.4138 58.7445C56.7508 58.7137 57.0581 58.7361 57.3387 58.8071Z" fill="#FFCC80"/>
<path fill-rule="evenodd" clip-rule="evenodd" d="M86.3057 62.8713C86.2761 62.8689 86.2462 62.8676 86.216 62.8676H81.7839C81.7538 62.8676 81.7239 62.8689 81.6943 62.8714C81.0083 59.1281 76.8701 56.25 71.8676 56.25C66.3854 56.25 61.9412 59.7066 61.9412 63.9706C61.9412 68.2346 66.3854 71.6912 71.8676 71.6912C76.87 71.6912 81.0082 68.8132 81.6942 65.0699C81.7238 65.0723 81.7537 65.0735 81.7839 65.0735H86.216C86.2462 65.0735 86.2761 65.0723 86.3057 65.0698C86.9917 68.8131 91.1299 71.6912 96.1323 71.6912C101.615 71.6912 106.059 68.2346 106.059 63.9706C106.059 59.7066 101.615 56.25 96.1323 56.25C91.1299 56.25 86.9918 59.128 86.3057 62.8713Z" fill="#4E342E"/>
<path fill-rule="evenodd" clip-rule="evenodd" d="M71.8677 69.4855C76.1316 69.4855 79.5883 67.0164 79.5883 63.9708C79.5883 60.9251 76.1316 58.4561 71.8677 58.4561C67.6037 58.4561 64.1471 60.9251 64.1471 63.9708C64.1471 67.0164 67.6037 69.4855 71.8677 69.4855Z" fill="#26C6DA"/>
<path fill-rule="evenodd" clip-rule="evenodd" d="M96.1325 69.4855C100.396 69.4855 103.853 67.0164 103.853 63.9708C103.853 60.9251 100.396 58.4561 96.1325 58.4561C91.8685 58.4561 88.4119 60.9251 88.4119 63.9708C88.4119 67.0164 91.8685 69.4855 96.1325 69.4855Z" fill="#26C6DA"/>
<path fill-rule="evenodd" clip-rule="evenodd" d="M55.274 59.046C55.274 59.046 52.1369 24.99 83.6252 25.6778C115.113 26.3655 112.455 58.9173 112.455 58.9173C112.455 58.9173 108.404 57.6948 108.359 67.2408C107.213 66.493 105.187 62.6556 105.244 61.2883C104.133 61.4261 78.929 61.5864 75.1301 46.8421C74.1936 50.9105 72.5371 56.8849 62.9369 61.2344C62.463 63.3517 61.3189 66.7615 60.3498 67.2976C60.2447 57.3924 55.274 59.046 55.274 59.046Z" fill="#4E342E"/>
</svg>
