<svg width="44" height="46" viewBox="0 0 44 46" fill="none" xmlns="http://www.w3.org/2000/svg">
<path fill-rule="evenodd" clip-rule="evenodd" d="M22 46C34.1503 46 44 35.7025 44 23C44 10.2975 34.1503 0 22 0C9.84974 0 0 10.2975 0 23C0 35.7025 9.84974 46 22 46Z" fill="#26A69A"/>
<path fill-rule="evenodd" clip-rule="evenodd" d="M37.0609 39.7654C33.1248 43.6316 27.8269 46 21.9999 46C16.2428 46 11.0021 43.6881 7.08105 39.9038C7.1162 39.7934 7.15239 39.6826 7.18964 39.5716C7.90625 37.4359 8.07554 35.8651 11.8188 34.3327C15.562 32.8004 27.3028 32.7641 31.6074 34.161C35.9121 35.5579 36.3578 37.7457 36.9635 39.472C36.997 39.5674 37.0294 39.6654 37.0609 39.7654V39.7654Z" fill="#00E5FF"/>
<path fill-rule="evenodd" clip-rule="evenodd" d="M14.562 33.6448C18.7379 32.9715 25.3133 32.9845 29.4372 33.6641C29.3075 36.5702 26.0274 38.897 22 38.897C17.9637 38.897 14.678 36.5598 14.562 33.6448H14.562Z" fill="white"/>
<path fill-rule="evenodd" clip-rule="evenodd" d="M15.8531 33.4667C19.5474 33.0337 24.4834 33.0423 28.1471 33.4821C28.1471 33.4832 28.1471 33.4842 28.1471 33.4853C28.1471 35.9137 25.395 37.8823 22.0001 37.8823C18.6052 37.8823 15.853 35.9137 15.853 33.4853C15.853 33.4791 15.853 33.4729 15.8531 33.4667Z" fill="#FFB74D"/>
<path fill-rule="evenodd" clip-rule="evenodd" d="M14.1793 18.0341C15.0941 13.6888 18.2488 10.4853 21.9999 10.4853C25.7628 10.4853 28.9255 13.7089 29.8291 18.0749C29.9397 18.0225 30.0665 18.001 30.2121 18.0149C31.0893 18.0989 31.078 19.3102 30.9534 20.7989C30.8305 22.2681 30.3089 23.4242 29.782 23.4074C29.0867 26.482 27.2649 28.9624 24.9117 30.102V33.8246C24.9117 35.5052 23.6084 36.8676 21.9999 36.8676C20.3918 36.8676 19.0882 35.5075 19.0882 33.8246V30.102C16.7305 28.9603 14.9063 26.4727 14.214 23.39C13.7316 23.2402 13.28 22.1524 13.1667 20.7989C13.0421 19.3102 13.0308 18.0989 13.908 18.0149C14.0069 18.0055 14.097 18.0123 14.1793 18.0341Z" fill="#FFB74D"/>
<path fill-rule="evenodd" clip-rule="evenodd" d="M22.6762 19.2805C22.6676 19.2798 22.6588 19.2794 22.6499 19.2794H21.3498C21.341 19.2794 21.3322 19.2798 21.3235 19.2806C21.1223 18.1326 19.9084 17.25 18.4411 17.25C16.8329 17.25 15.5293 18.31 15.5293 19.6176C15.5293 20.9253 16.8329 21.9853 18.4411 21.9853C19.9084 21.9853 21.1223 21.1027 21.3235 19.9548C21.3322 19.9555 21.341 19.9559 21.3498 19.9559H22.6499C22.6588 19.9559 22.6675 19.9555 22.6762 19.9547C22.8775 21.1027 24.0913 21.9853 25.5587 21.9853C27.1668 21.9853 28.4705 20.9253 28.4705 19.6176C28.4705 18.31 27.1668 17.25 25.5587 17.25C24.0913 17.25 22.8775 18.1326 22.6762 19.2805Z" fill="white"/>
<path fill-rule="evenodd" clip-rule="evenodd" d="M18.4412 21.3088C19.692 21.3088 20.7059 20.5516 20.7059 19.6176C20.7059 18.6836 19.692 17.9265 18.4412 17.9265C17.1905 17.9265 16.1765 18.6836 16.1765 19.6176C16.1765 20.5516 17.1905 21.3088 18.4412 21.3088Z" fill="#37474F"/>
<path fill-rule="evenodd" clip-rule="evenodd" d="M25.5589 21.3088C26.8097 21.3088 27.8236 20.5516 27.8236 19.6176C27.8236 18.6836 26.8097 17.9265 25.5589 17.9265C24.3081 17.9265 23.2942 18.6836 23.2942 19.6176C23.2942 20.5516 24.3081 21.3088 25.5589 21.3088Z" fill="#37474F"/>
<path fill-rule="evenodd" clip-rule="evenodd" d="M16.2398 9.77515C13.1005 12.7359 13.5737 18.1075 13.5737 18.1075C13.5737 18.1075 15.0318 17.6004 15.0626 20.638C15.3469 20.4736 15.6825 19.4279 15.8215 18.7786C18.6376 17.4447 19.1235 15.6126 19.3982 14.3649C20.5126 18.8865 27.9056 18.8374 28.2315 18.7951C28.2149 19.2144 28.8091 20.3912 29.1453 20.6206C29.1585 17.6931 30.347 18.068 30.347 18.068C30.347 18.068 30.8235 11.9666 26.6179 9.20315C26.6868 9.00938 27.0794 8.19517 28.831 8.10156C26.2618 6.7634 24.1301 8.08347 24.1301 8.08347C24.1301 8.08347 25.0519 5.84721 27.1617 5.75381C24.1115 5.42342 22.0548 6.14742 20.649 7.80804C21.338 4.88176 22.5836 4.67783 23.8331 3.94373C18.7645 5.00507 16.6907 8.81034 16.2398 9.77515Z" fill="#162827"/>
</svg>
