<svg width="48" height="48" viewBox="0 0 48 48" fill="none" xmlns="http://www.w3.org/2000/svg">
<path d="M12.375 16.875C9.69415 16.875 8.625 19.95 8.625 22.875C8.625 23.7034 9.29657 24.375 10.125 24.375H26.625C27.8676 24.375 28.875 23.3869 28.875 22.1443V21.75C28.875 18.825 27.9495 13.875 24.375 13.875C20.3537 13.875 19.7074 19.875 17.25 19.875C14.7926 19.875 15.0559 16.875 12.375 16.875Z" fill="#FFF4D9" stroke="black" stroke-width="2.25"/>
<mask id="path-2-outside-1_18_197" maskUnits="userSpaceOnUse" x="5.73779" y="3.75" width="38" height="40" fill="black">
<rect fill="white" x="5.73779" y="3.75" width="38" height="40"/>
<path fill-rule="evenodd" clip-rule="evenodd" d="M23.9999 41.25C33.5268 41.25 41.2499 33.5269 41.2499 24C41.2499 14.4731 33.5268 6.75 23.9999 6.75C22.0755 6.75 20.2247 7.06512 18.4963 7.64659C25.0055 8.61143 29.9999 14.2225 29.9999 21C29.9999 28.4558 23.9558 34.5 16.4999 34.5C13.6107 34.5 10.9335 33.5924 8.73779 32.0467C11.6295 37.52 17.3791 41.25 23.9999 41.25Z"/>
</mask>
<path fill-rule="evenodd" clip-rule="evenodd" d="M23.9999 41.25C33.5268 41.25 41.2499 33.5269 41.2499 24C41.2499 14.4731 33.5268 6.75 23.9999 6.75C22.0755 6.75 20.2247 7.06512 18.4963 7.64659C25.0055 8.61143 29.9999 14.2225 29.9999 21C29.9999 28.4558 23.9558 34.5 16.4999 34.5C13.6107 34.5 10.9335 33.5924 8.73779 32.0467C11.6295 37.52 17.3791 41.25 23.9999 41.25Z" fill="#699BF7"/>
<path d="M18.4963 7.64659L17.7789 5.51403C16.793 5.84567 16.163 6.80982 16.2551 7.84586C16.3472 8.8819 17.1375 9.71976 18.1664 9.87227L18.4963 7.64659ZM8.73779 32.0467L10.033 30.2069C9.18234 29.6081 8.03212 29.6704 7.25124 30.3577C6.47037 31.045 6.26244 32.178 6.74838 33.0978L8.73779 32.0467ZM38.9999 24C38.9999 32.2843 32.2842 39 23.9999 39V43.5C34.7695 43.5 43.4999 34.7696 43.4999 24H38.9999ZM23.9999 9C32.2842 9 38.9999 15.7157 38.9999 24H43.4999C43.4999 13.2304 34.7695 4.5 23.9999 4.5V9ZM19.2137 9.77915C20.7139 9.27446 22.3226 9 23.9999 9V4.5C21.8285 4.5 19.7355 4.85579 17.7789 5.51403L19.2137 9.77915ZM18.1664 9.87227C23.5887 10.676 27.7499 15.354 27.7499 21H32.2499C32.2499 13.0909 26.4223 6.54685 18.8262 5.4209L18.1664 9.87227ZM27.7499 21C27.7499 27.2132 22.7131 32.25 16.4999 32.25V36.75C25.1984 36.75 32.2499 29.6985 32.2499 21H27.7499ZM16.4999 32.25C14.0893 32.25 11.8619 31.4944 10.033 30.2069L7.44262 33.8866C10.0051 35.6904 13.1321 36.75 16.4999 36.75V32.25ZM23.9999 39C18.2458 39 13.2447 35.7607 10.7272 30.9957L6.74838 33.0978C10.0142 39.2793 16.5124 43.5 23.9999 43.5V39Z" fill="black" mask="url(#path-2-outside-1_18_197)"/>
<path d="M35.9886 25.2841C36.0765 24.669 35.6491 24.0992 35.034 24.0113C34.419 23.9234 33.8491 24.3508 33.7612 24.9659L35.9886 25.2841ZM33.7612 24.9659C33.6199 25.9556 33.1179 26.6555 32.4166 27.0566C31.7012 27.4658 30.6683 27.6234 29.3978 27.283L28.8155 29.4563C30.5451 29.9198 32.2088 29.7675 33.5337 29.0097C34.8729 28.2437 35.755 26.9193 35.9886 25.2841L33.7612 24.9659ZM29.3978 27.283C28.7714 27.1151 28.2058 26.8626 27.7474 26.536L26.4417 28.3683C27.1586 28.8792 27.9812 29.2328 28.8155 29.4563L29.3978 27.283Z" fill="black"/>
<circle cx="33.75" cy="19.5" r="1.5" fill="black"/>
<circle cx="33.75" cy="19.5" r="1.5" fill="black"/>
<circle cx="33.75" cy="19.5" r="1.5" fill="black"/>
<circle cx="33.75" cy="19.5" r="1.5" fill="black"/>
</svg>
