<svg width="529" height="415" viewBox="0 0 529 415" fill="none" xmlns="http://www.w3.org/2000/svg">
<path opacity="0.1" fill-rule="evenodd" clip-rule="evenodd" d="M17.5359 281.054L264.5 411.903L511.464 281.054L264.5 150.205L17.5359 281.054Z" fill="black"/>
<path fill-rule="evenodd" clip-rule="evenodd" d="M0 225.373V235.846L264.5 376.287L529 235.846V225.373L264.5 85.1679L0 225.373Z" fill="url(#paint0_linear_18_390)"/>
<path fill-rule="evenodd" clip-rule="evenodd" d="M0 225.129L264.5 365.09L529 225.129L264.5 85.1679L0 225.129Z" fill="#5C5C5C"/>
<path fill-rule="evenodd" clip-rule="evenodd" d="M366.793 279.337V282.162L335.668 298.862L284.959 271.793V268.968L316.084 252.407L366.793 279.337Z" fill="url(#paint1_linear_18_390)"/>
<path fill-rule="evenodd" clip-rule="evenodd" d="M366.793 279.137L335.668 295.544L284.959 268.814L316.084 252.407L366.793 279.137Z" fill="#323232"/>
<path fill-rule="evenodd" clip-rule="evenodd" d="M312.514 271.569L313.539 268.525L320.935 271.569L328.532 277.913L326.645 279.966L318.127 273.553L315.31 272.305L312.514 273.553V271.569Z" fill="black"/>
<path fill-rule="evenodd" clip-rule="evenodd" d="M321.093 265.069L323.562 270.477L330.875 275.658H336.313L336.87 270.363L329.744 267.004V272.087L332.441 272.878V270.477L333.997 271.438V273.563L332.441 274.049L328.291 272.38L324.877 267.004L326.727 264.581L321.093 265.069Z" fill="black"/>
<path fill-rule="evenodd" clip-rule="evenodd" d="M247.525 121.059L77.9729 210.696L29.2265 89.6855L198.688 0L247.525 121.059Z" fill="#667CA6"/>
<path fill-rule="evenodd" clip-rule="evenodd" d="M239.382 117.557L82.6307 199.973L39.3464 93.8947L196.148 10.5859L239.382 117.557Z" fill="#D7E6FF"/>
<path fill-rule="evenodd" clip-rule="evenodd" d="M349.257 174.793V185.784L179.704 275.572L77.9728 221.708V210.647L247.525 121.01L349.257 174.793Z" fill="url(#paint2_linear_18_390)"/>
<path fill-rule="evenodd" clip-rule="evenodd" d="M349.257 174.841L179.704 264.478L77.9728 210.696L247.434 121.01L349.257 174.841Z" fill="#D7E6FF"/>
<path fill-rule="evenodd" clip-rule="evenodd" d="M179.107 257.629L88.4894 211.591L246.939 127.733L336.54 175.103L179.107 257.629Z" fill="#667CA6"/>
<path fill-rule="evenodd" clip-rule="evenodd" d="M223.778 226.465L192.421 210.534L247.251 181.515L278.257 197.907L223.778 226.465Z" fill="#D7E6FF"/>
<path fill-rule="evenodd" clip-rule="evenodd" d="M404.787 216.791C415.279 216.791 423.785 212.283 423.785 206.722C423.785 202.31 423.785 166.252 423.785 166.252H385.79C385.79 166.252 385.79 201.161 385.79 206.722C385.79 212.283 394.295 216.791 404.787 216.791Z" fill="url(#paint3_linear_18_390)"/>
<path fill-rule="evenodd" clip-rule="evenodd" d="M404.787 176.36C415.279 176.36 423.785 171.834 423.785 166.252C423.785 160.669 415.279 156.144 404.787 156.144C394.295 156.144 385.79 160.669 385.79 166.252C385.79 171.834 394.295 176.36 404.787 176.36Z" fill="#60F0AE"/>
<path fill-rule="evenodd" clip-rule="evenodd" d="M406.898 123.574L409.009 114.59L411.12 123.574V165.129C411.12 165.129 410.475 165.649 409.009 165.649C407.542 165.649 406.898 165.129 406.898 165.129V123.574Z" fill="url(#paint4_linear_18_390)"/>
<path fill-rule="evenodd" clip-rule="evenodd" d="M413.23 139.298L415.341 130.313L417.452 139.298V169.621C417.452 169.621 416.808 170.141 415.341 170.141C413.875 170.141 413.23 169.621 413.23 169.621V139.298Z" fill="url(#paint5_linear_18_390)"/>
<path fill-rule="evenodd" clip-rule="evenodd" d="M392.122 150.529L394.233 141.544L396.344 150.529V167.375C396.344 167.375 395.7 167.895 394.233 167.895C392.767 167.895 392.122 167.375 392.122 167.375V150.529Z" fill="url(#paint6_linear_18_390)"/>
<path fill-rule="evenodd" clip-rule="evenodd" d="M398.455 128.067L400.47 119.082L402.676 128.067V169.621C402.676 169.621 402.075 170.165 400.47 170.178C398.864 170.191 398.455 169.621 398.455 169.621V128.067Z" fill="url(#paint7_linear_18_390)"/>
<path fill-rule="evenodd" clip-rule="evenodd" d="M359.008 238.487L332.081 224.048V221.824L337.881 218.651L364.972 233.102V235.321L359.008 238.487Z" fill="#D8D8D8"/>
<path fill-rule="evenodd" clip-rule="evenodd" d="M359.008 236.264L332.081 221.825L337.881 218.654L364.972 233.097L359.008 236.264Z" fill="white"/>
<path fill-rule="evenodd" clip-rule="evenodd" d="M369.716 247.245C363.887 247.245 359.161 244.856 359.161 241.908C359.161 239.57 359.161 237.239 359.161 237.239H380.27C380.27 237.239 380.27 238.961 380.27 241.908C380.27 244.856 375.544 247.245 369.716 247.245Z" fill="url(#paint8_linear_18_390)"/>
<path fill-rule="evenodd" clip-rule="evenodd" d="M369.716 241.686C363.887 241.686 359.161 239.446 359.161 236.683C359.161 233.92 363.887 231.681 369.716 231.681C375.544 231.681 380.27 233.92 380.27 236.683C380.27 239.446 375.544 241.686 369.716 241.686Z" fill="#A9F164"/>
<path fill-rule="evenodd" clip-rule="evenodd" d="M401.224 260.722L374.297 246.283V244.059L380.098 240.886L407.188 255.337V257.556L401.224 260.722Z" fill="#D8D8D8"/>
<path fill-rule="evenodd" clip-rule="evenodd" d="M401.224 258.499L374.297 244.06L380.098 240.889L407.188 255.332L401.224 258.499Z" fill="white"/>
<defs>
<linearGradient id="paint0_linear_18_390" x1="7.78083" y1="93.7318" x2="7.78083" y2="376.287" gradientUnits="userSpaceOnUse">
<stop stop-color="#5C5C5C"/>
<stop offset="1" stop-color="#1B1B1B"/>
</linearGradient>
<linearGradient id="paint1_linear_18_390" x1="288.508" y1="295.566" x2="288.508" y2="253.141" gradientUnits="userSpaceOnUse">
<stop/>
<stop offset="1" stop-color="#393838"/>
</linearGradient>
<linearGradient id="paint2_linear_18_390" x1="342.607" y1="125.629" x2="342.607" y2="272.613" gradientUnits="userSpaceOnUse">
<stop stop-color="#E0E9FF"/>
<stop offset="1" stop-color="#8BA7DE"/>
</linearGradient>
<linearGradient id="paint3_linear_18_390" x1="423.226" y1="216.791" x2="423.226" y2="167.739" gradientUnits="userSpaceOnUse">
<stop stop-color="#69F7AE"/>
<stop offset="1" stop-color="#10AEAF"/>
</linearGradient>
<linearGradient id="paint4_linear_18_390" x1="406.96" y1="116.092" x2="406.96" y2="165.649" gradientUnits="userSpaceOnUse">
<stop stop-color="#F7A5FF"/>
<stop offset="1" stop-color="#6142FF"/>
</linearGradient>
<linearGradient id="paint5_linear_18_390" x1="413.293" y1="131.484" x2="413.293" y2="170.141" gradientUnits="userSpaceOnUse">
<stop stop-color="#F7BA69"/>
<stop offset="1" stop-color="#FE5903"/>
</linearGradient>
<linearGradient id="paint6_linear_18_390" x1="392.222" y1="142.783" x2="392.222" y2="167.895" gradientUnits="userSpaceOnUse">
<stop stop-color="#B3FF65"/>
<stop offset="1" stop-color="#64B60D"/>
</linearGradient>
<linearGradient id="paint7_linear_18_390" x1="398.517" y1="120.585" x2="398.517" y2="170.178" gradientUnits="userSpaceOnUse">
<stop offset="0.0110611" stop-color="#FFF0B4"/>
<stop offset="1" stop-color="#C6BA3F"/>
</linearGradient>
<linearGradient id="paint8_linear_18_390" x1="359.472" y1="247.245" x2="359.472" y2="237.534" gradientUnits="userSpaceOnUse">
<stop stop-color="#ACF769"/>
<stop offset="1" stop-color="#97CE47"/>
</linearGradient>
</defs>
</svg>
