<svg width="237" height="208" viewBox="0 0 237 208" fill="none" xmlns="http://www.w3.org/2000/svg">
<path opacity="0.1" fill-rule="evenodd" clip-rule="evenodd" d="M7.42944 141.818L118.871 206.281L230.313 141.818L118.871 77.3555L7.42944 141.818Z" fill="black"/>
<path fill-rule="evenodd" clip-rule="evenodd" d="M0 112.549V117.682L118.5 186.512L237 117.682V112.549L118.5 43.8345L0 112.549Z" fill="url(#paint0_linear_18_462)"/>
<path fill-rule="evenodd" clip-rule="evenodd" d="M0 112.43L118.5 181.025L237 112.43L118.5 43.8345L0 112.43Z" fill="#F551BB"/>
<path fill-rule="evenodd" clip-rule="evenodd" d="M139.192 59.2666L215.159 103.15L237 43.9073L161.074 0L139.192 59.2666Z" fill="#667CA6"/>
<path fill-rule="evenodd" clip-rule="evenodd" d="M142.84 57.5524L213.072 97.9007L232.466 45.9681L162.211 5.18262L142.84 57.5524Z" fill="#D7E6FF"/>
<path fill-rule="evenodd" clip-rule="evenodd" d="M93.6113 85.5728V90.9538L169.579 134.911L215.159 108.541V103.126L139.192 59.2427L93.6113 85.5728Z" fill="url(#paint1_linear_18_462)"/>
<path fill-rule="evenodd" clip-rule="evenodd" d="M93.6113 85.5965L169.579 129.48L215.159 103.15L139.233 59.2427L93.6113 85.5965Z" fill="#D7E6FF"/>
<path fill-rule="evenodd" clip-rule="evenodd" d="M169.846 126.127L210.447 103.588L139.455 62.5342L99.3088 85.7249L169.846 126.127Z" fill="#667CA6"/>
<path fill-rule="evenodd" clip-rule="evenodd" d="M149.832 110.87L163.881 103.071L139.315 88.8643L125.423 96.8892L149.832 110.87Z" fill="#D7E6FF"/>
<path fill-rule="evenodd" clip-rule="evenodd" d="M56.8354 109.157C65.2469 109.157 72.0658 105.242 72.0658 100.413C72.0658 96.5824 72.0658 29.373 72.0658 29.373H41.605C41.605 29.373 41.605 95.5845 41.605 100.413C41.605 105.242 48.4239 109.157 56.8354 109.157Z" fill="url(#paint2_linear_18_462)"/>
<path fill-rule="evenodd" clip-rule="evenodd" d="M56.8354 38.1151C65.2469 38.1151 72.0658 34.2005 72.0658 29.3715C72.0658 24.5426 65.2469 20.6279 56.8354 20.6279C48.4239 20.6279 41.605 24.5426 41.605 29.3715C41.605 34.2005 48.4239 38.1151 56.8354 38.1151Z" fill="#60D9F7"/>
<path fill-rule="evenodd" clip-rule="evenodd" d="M85.0674 118.612C93.479 118.612 100.298 114.694 100.298 109.86C100.298 106.026 100.298 55.166 100.298 55.166H69.837C69.837 55.166 69.837 105.027 69.837 109.86C69.837 114.694 76.6559 118.612 85.0674 118.612Z" fill="url(#paint3_linear_18_462)"/>
<path fill-rule="evenodd" clip-rule="evenodd" d="M85.0674 63.9157C93.479 63.9157 100.298 59.9976 100.298 55.1644C100.298 50.3312 93.479 46.4131 85.0674 46.4131C76.6559 46.4131 69.837 50.3312 69.837 55.1644C69.837 59.9976 76.6559 63.9157 85.0674 63.9157Z" fill="#60F0AE"/>
<path fill-rule="evenodd" clip-rule="evenodd" d="M68.7226 134.942C77.1341 134.942 83.953 131.009 83.953 126.156C83.953 122.307 83.953 104.192 83.953 104.192H53.4922C53.4922 104.192 53.4922 121.304 53.4922 126.156C53.4922 131.009 60.3111 134.942 68.7226 134.942Z" fill="url(#paint4_linear_18_462)"/>
<path fill-rule="evenodd" clip-rule="evenodd" d="M68.7226 112.977C77.1341 112.977 83.953 109.043 83.953 104.191C83.953 99.3384 77.1341 95.4048 68.7226 95.4048C60.3111 95.4048 53.4922 99.3384 53.4922 104.191C53.4922 109.043 60.3111 112.977 68.7226 112.977Z" fill="#A9F164"/>
<path fill-rule="evenodd" clip-rule="evenodd" d="M98.069 142.423C100.531 142.423 102.527 141.315 102.527 139.949C102.527 138.865 102.527 128.353 102.527 128.353H93.6113C93.6113 128.353 93.6113 138.583 93.6113 139.949C93.6113 141.315 95.6071 142.423 98.069 142.423Z" fill="url(#paint5_linear_18_462)"/>
<path fill-rule="evenodd" clip-rule="evenodd" d="M98.069 130.517C100.531 130.517 102.527 129.427 102.527 128.082C102.527 126.737 100.531 125.646 98.069 125.646C95.6071 125.646 93.6113 126.737 93.6113 128.082C93.6113 129.427 95.6071 130.517 98.069 130.517Z" fill="#FEEC65"/>
<path fill-rule="evenodd" clip-rule="evenodd" d="M106.984 140.799C109.446 140.799 111.442 139.692 111.442 138.325C111.442 137.241 111.442 121.317 111.442 121.317H102.527C102.527 121.317 102.527 136.959 102.527 138.325C102.527 139.692 104.523 140.799 106.984 140.799Z" fill="url(#paint6_linear_18_462)"/>
<path fill-rule="evenodd" clip-rule="evenodd" d="M106.984 123.482C109.446 123.482 111.442 122.392 111.442 121.047C111.442 119.702 109.446 118.611 106.984 118.611C104.523 118.611 102.527 119.702 102.527 121.047C102.527 122.392 104.523 123.482 106.984 123.482Z" fill="#FEEC65"/>
<path fill-rule="evenodd" clip-rule="evenodd" d="M103.7 147.834C106.162 147.834 108.157 146.727 108.157 145.36C108.157 144.276 108.157 139.176 108.157 139.176H99.2421C99.2421 139.176 99.2421 143.994 99.2421 145.36C99.2421 146.727 101.238 147.834 103.7 147.834Z" fill="url(#paint7_linear_18_462)"/>
<path fill-rule="evenodd" clip-rule="evenodd" d="M103.7 141.34C106.162 141.34 108.157 140.25 108.157 138.905C108.157 137.56 106.162 136.47 103.7 136.47C101.238 136.47 99.2421 137.56 99.2421 138.905C99.2421 140.25 101.238 141.34 103.7 141.34Z" fill="#FEEC65"/>
<path fill-rule="evenodd" clip-rule="evenodd" d="M136.474 129.785L151.561 138.657V144.203L117.614 164.165L102.527 155.293V149.748L136.474 129.785Z" fill="url(#paint8_linear_18_462)"/>
<path fill-rule="evenodd" clip-rule="evenodd" d="M136.474 129.785L151.561 138.657L117.614 158.62L102.527 149.748L136.474 129.785Z" fill="#AFEB51"/>
<path fill-rule="evenodd" clip-rule="evenodd" d="M122.329 138.114L137.41 146.997V152.497L135.087 153.837V148.364L120.105 139.403L122.329 138.114Z" fill="white"/>
<defs>
<linearGradient id="paint0_linear_18_462" x1="3.48593" y1="48.0316" x2="3.48593" y2="186.512" gradientUnits="userSpaceOnUse">
<stop stop-color="#FF58BA"/>
<stop offset="1" stop-color="#991CC8"/>
</linearGradient>
<linearGradient id="paint1_linear_18_462" x1="96.5909" y1="61.5039" x2="96.5909" y2="133.463" gradientUnits="userSpaceOnUse">
<stop stop-color="#E0E9FF"/>
<stop offset="1" stop-color="#8BA7DE"/>
</linearGradient>
<linearGradient id="paint2_linear_18_462" x1="71.6178" y1="109.157" x2="71.6178" y2="31.7201" gradientUnits="userSpaceOnUse">
<stop stop-color="#69E0F7"/>
<stop offset="1" stop-color="#1090F3"/>
</linearGradient>
<linearGradient id="paint3_linear_18_462" x1="99.8498" y1="118.612" x2="99.8498" y2="57.0324" gradientUnits="userSpaceOnUse">
<stop stop-color="#69F7AE"/>
<stop offset="1" stop-color="#10AEAF"/>
</linearGradient>
<linearGradient id="paint4_linear_18_462" x1="83.505" y1="134.942" x2="83.505" y2="105.097" gradientUnits="userSpaceOnUse">
<stop stop-color="#ACF769"/>
<stop offset="1" stop-color="#97CE47"/>
</linearGradient>
<linearGradient id="paint5_linear_18_462" x1="102.396" y1="142.423" x2="102.396" y2="128.766" gradientUnits="userSpaceOnUse">
<stop stop-color="#FFEF68"/>
<stop offset="1" stop-color="#E29823"/>
</linearGradient>
<linearGradient id="paint6_linear_18_462" x1="111.311" y1="140.799" x2="111.311" y2="121.89" gradientUnits="userSpaceOnUse">
<stop stop-color="#FFEF68"/>
<stop offset="1" stop-color="#E29823"/>
</linearGradient>
<linearGradient id="paint7_linear_18_462" x1="108.026" y1="147.834" x2="108.026" y2="139.43" gradientUnits="userSpaceOnUse">
<stop stop-color="#FFEF68"/>
<stop offset="1" stop-color="#E29823"/>
</linearGradient>
<linearGradient id="paint8_linear_18_462" x1="103.248" y1="130.797" x2="103.248" y2="164.165" gradientUnits="userSpaceOnUse">
<stop stop-color="#B1EB53"/>
<stop offset="1" stop-color="#45C10E"/>
</linearGradient>
</defs>
</svg>
