<svg width="19" height="18" viewBox="0 0 19 18" fill="none" xmlns="http://www.w3.org/2000/svg">
<path fill-rule="evenodd" clip-rule="evenodd" d="M1.38541 6.75C1.38541 4.57538 3.24622 2.8125 5.54166 2.8125H13.4583C15.7538 2.8125 17.6146 4.57538 17.6146 6.75V11.25C17.6146 13.4246 15.7538 15.1875 13.4583 15.1875H5.54166C3.24622 15.1875 1.38541 13.4246 1.38541 11.25V6.75ZM5.54166 1.6875C2.59038 1.6875 0.197906 3.95406 0.197906 6.75V11.25C0.197906 14.0459 2.59039 16.3125 5.54166 16.3125H13.4583C16.4096 16.3125 18.8021 14.0459 18.8021 11.25V6.75C18.8021 3.95406 16.4096 1.6875 13.4583 1.6875H5.54166ZM3.76041 9C3.76041 8.06802 4.5579 7.3125 5.54166 7.3125C6.52541 7.3125 7.32291 8.06802 7.32291 9C7.32291 9.93198 6.52541 10.6875 5.54166 10.6875C4.5579 10.6875 3.76041 9.93198 3.76041 9ZM5.54166 6.1875C3.90206 6.1875 2.57291 7.4467 2.57291 9C2.57291 10.5533 3.90206 11.8125 5.54166 11.8125C7.18125 11.8125 8.51041 10.5533 8.51041 9C8.51041 7.4467 7.18125 6.1875 5.54166 6.1875ZM12.4687 6.75C12.4687 7.06066 12.2029 7.3125 11.875 7.3125H10.0937V8.4375H11.5358C11.8637 8.4375 12.1295 8.68934 12.1295 9C12.1295 9.31066 11.8637 9.5625 11.5358 9.5625H10.0937V11.25C10.0937 11.5607 9.82791 11.8125 9.49999 11.8125C9.17207 11.8125 8.90624 11.5607 8.90624 11.25V6.75C8.90624 6.43934 9.17207 6.1875 9.49999 6.1875H11.875C12.2029 6.1875 12.4687 6.43934 12.4687 6.75ZM15.8333 7.3125C16.1612 7.3125 16.4271 7.06066 16.4271 6.75C16.4271 6.43934 16.1612 6.1875 15.8333 6.1875H13.4583C13.1304 6.1875 12.8646 6.43934 12.8646 6.75V11.25C12.8646 11.5607 13.1304 11.8125 13.4583 11.8125C13.7862 11.8125 14.0521 11.5607 14.0521 11.25V9.5625H15.4941C15.822 9.5625 16.0879 9.31066 16.0879 9C16.0879 8.68934 15.822 8.4375 15.4941 8.4375H14.0521V7.3125H15.8333Z" fill="#555555"/>
</svg>
