<svg width="19" height="19" viewBox="0 0 19 19" fill="none" xmlns="http://www.w3.org/2000/svg">
<path fill-rule="evenodd" clip-rule="evenodd" d="M5.54169 2.96875C3.24625 2.96875 1.38544 4.82957 1.38544 7.125V11.875C1.38544 14.1704 3.24625 16.0312 5.54169 16.0312H13.4584C15.7538 16.0312 17.6146 14.1704 17.6146 11.875V7.125C17.6146 4.82957 15.7538 2.96875 13.4584 2.96875H5.54169ZM0.197937 7.125C0.197937 4.17373 2.59042 1.78125 5.54169 1.78125H13.4584C16.4096 1.78125 18.8021 4.17373 18.8021 7.125V11.875C18.8021 14.8263 16.4096 17.2188 13.4584 17.2188H5.54169C2.59042 17.2188 0.197937 14.8263 0.197937 11.875V7.125ZM7.12502 7.71875C6.14126 7.71875 5.34377 8.51624 5.34377 9.5C5.34377 10.4838 6.14126 11.2812 7.12502 11.2812C8.10878 11.2812 8.90627 10.4838 8.90627 9.5C8.90627 8.51624 8.10878 7.71875 7.12502 7.71875ZM4.15627 9.5C4.15627 7.8604 5.48542 6.53125 7.12502 6.53125C8.76462 6.53125 10.0938 7.8604 10.0938 9.5C10.0938 11.1396 8.76462 12.4688 7.12502 12.4688C5.48542 12.4688 4.15627 11.1396 4.15627 9.5ZM14.8438 7.125C14.8438 6.79708 14.5779 6.53125 14.25 6.53125C13.9221 6.53125 13.6563 6.79708 13.6563 7.125V9.91397L11.5774 6.79564C11.4322 6.57794 11.1617 6.4809 10.9113 6.55672C10.6609 6.63255 10.4896 6.86335 10.4896 7.125V11.875C10.4896 12.2029 10.7554 12.4687 11.0834 12.4687C11.4113 12.4687 11.6771 12.2029 11.6771 11.875V9.08602L13.756 12.2044C13.9011 12.4221 14.1717 12.5191 14.4221 12.4433C14.6725 12.3674 14.8438 12.1366 14.8438 11.875V7.125Z" fill="#555555"/>
</svg>
