<svg width="45" height="45" viewBox="0 0 45 45" fill="none" xmlns="http://www.w3.org/2000/svg">
<path d="M36.52 8.48023C35.0754 7.03566 33.4242 6.18905 31.8503 6.01983C30.308 5.85401 28.7591 6.3262 27.4072 7.67749C27.4068 7.67788 27.4064 7.67826 27.4061 7.67865L9.5397 25.6511C8.73496 26.4606 8.17887 27.4836 7.93719 28.5992L5.94332 37.8028C5.78091 38.5525 6.4477 39.2193 7.1974 39.0569L16.401 37.0631C17.5166 36.8214 18.5396 36.2653 19.3492 35.4605L37.3216 17.5941C37.3219 17.5938 37.3222 17.5935 37.3226 17.5931C38.674 16.2412 39.1462 14.6922 38.9804 13.1499C38.8112 11.576 37.9646 9.9248 36.52 8.48023Z" fill="#D27C2C" stroke="black" stroke-width="2.10938"/>
<path d="M35.1562 20.3906L25.3125 10.5469" stroke="black" stroke-width="2.10938"/>
<mask id="path-3-inside-1_18_141" fill="white">
<path fill-rule="evenodd" clip-rule="evenodd" d="M9.58175 24.1123L8.79128 24.9076C7.84467 25.8599 7.19055 27.0634 6.90625 28.3757L4.91233 37.5795C4.5875 39.0789 5.9211 40.4125 7.4205 40.0877L16.6243 38.0938C17.9366 37.8095 19.1401 37.1553 20.0925 36.2087L20.8877 35.4182L9.58175 24.1123Z"/>
</mask>
<path fill-rule="evenodd" clip-rule="evenodd" d="M9.58175 24.1123L8.79128 24.9076C7.84467 25.8599 7.19055 27.0634 6.90625 28.3757L4.91233 37.5795C4.5875 39.0789 5.9211 40.4125 7.4205 40.0877L16.6243 38.0938C17.9366 37.8095 19.1401 37.1553 20.0925 36.2087L20.8877 35.4182L9.58175 24.1123Z" fill="#FFF4D9"/>
<path d="M9.58175 24.1123L8.08571 22.6253L9.57725 21.1247L11.0733 22.6208L9.58175 24.1123ZM8.79128 24.9076L10.2873 26.3946V26.3946L8.79128 24.9076ZM6.90625 28.3757L4.84469 27.9291L6.90625 28.3757ZM4.91233 37.5795L6.97388 38.0261L6.97388 38.0261L4.91233 37.5795ZM7.4205 40.0877L6.97388 38.0261L7.4205 40.0877ZM16.6243 38.0938L17.0709 40.1553H17.0709L16.6243 38.0938ZM20.0925 36.2087L18.6054 34.7127L18.6054 34.7127L20.0925 36.2087ZM20.8877 35.4182L22.3792 33.9267L23.8753 35.4227L22.3747 36.9143L20.8877 35.4182ZM11.0778 25.5994L10.2873 26.3946L7.29524 23.4205L8.08571 22.6253L11.0778 25.5994ZM10.2873 26.3946C9.6247 27.0612 9.16681 27.9037 8.9678 28.8223L4.84469 27.9291C5.21428 26.223 6.06465 24.6585 7.29524 23.4205L10.2873 26.3946ZM8.9678 28.8223L6.97388 38.0261L2.85078 37.1329L4.84469 27.9291L8.9678 28.8223ZM6.97388 38.0261L6.97388 38.0261L7.86711 42.1492C4.86832 42.7989 2.20112 40.1317 2.85078 37.1329L6.97388 38.0261ZM6.97388 38.0261L16.1777 36.0322L17.0709 40.1553L7.86711 42.1492L6.97388 38.0261ZM16.1777 36.0322C17.0963 35.8332 17.9388 35.3753 18.6054 34.7127L21.5795 37.7048C20.3415 38.9354 18.777 39.7857 17.0709 40.1553L16.1777 36.0322ZM18.6054 34.7127L19.4006 33.9222L22.3747 36.9143L21.5795 37.7048L18.6054 34.7127ZM11.0733 22.6208L22.3792 33.9267L19.3961 36.9098L8.0902 25.6039L11.0733 22.6208Z" fill="black" mask="url(#path-3-inside-1_18_141)"/>
<path fill-rule="evenodd" clip-rule="evenodd" d="M6.34701 30.9565L4.91219 37.5796C4.58736 39.079 5.92096 40.4126 7.42035 40.0878L14.0435 38.653L6.34701 30.9565Z" fill="black"/>
</svg>
