<svg width="14" height="15" viewBox="0 0 14 15" fill="none" xmlns="http://www.w3.org/2000/svg">
<g clip-path="url(#clip0_64_4913)">
<path d="M10.5 1.25L12.8333 3.75M1.16663 13.75L1.91119 10.8249C1.95977 10.6341 1.98406 10.5387 2.02134 10.4497C2.05445 10.3707 2.09513 10.2956 2.14273 10.2256C2.19633 10.1467 2.26161 10.0768 2.39215 9.93693L8.41998 3.47855C8.53548 3.3548 8.59323 3.29292 8.65983 3.26974C8.71841 3.24934 8.78151 3.24934 8.84009 3.26974C8.90668 3.29292 8.96444 3.3548 9.07994 3.47855L10.7533 5.27145C10.8688 5.3952 10.9266 5.45708 10.9482 5.52843C10.9672 5.5912 10.9672 5.6588 10.9482 5.72157C10.9266 5.79292 10.8688 5.8548 10.7533 5.97855L4.72549 12.4369C4.59494 12.5768 4.52967 12.6467 4.45609 12.7042C4.39076 12.7552 4.32066 12.7988 4.24693 12.8342C4.16388 12.8742 4.07482 12.9002 3.89671 12.9522L1.16663 13.75Z" stroke-width="2" stroke-linecap="round" stroke-linejoin="round"/>
</g>
<defs>
<clipPath id="clip0_64_4913">
<rect width="14" height="15" fill="white"/>
</clipPath>
</defs>
</svg>
