<svg width="17" height="18" viewBox="0 0 30 30" fill="none" xmlns="http://www.w3.org/2000/svg">
<g clip-path="url(#clip0_41_5216)">
<path fill-rule="evenodd" clip-rule="evenodd" d="M15 2.5C12.5838 2.5 10.625 4.45875 10.625 6.875C10.625 9.29125 12.5838 11.25 15 11.25C17.4162 11.25 19.375 9.29125 19.375 6.875C19.375 4.45875 17.4162 2.5 15 2.5ZM13.125 6.875C13.125 5.83947 13.9645 5 15 5C16.0355 5 16.875 5.83947 16.875 6.875C16.875 7.91053 16.0355 8.75 15 8.75C13.9645 8.75 13.125 7.91053 13.125 6.875Z" fill="white"/>
<path fill-rule="evenodd" clip-rule="evenodd" d="M23.125 5C21.3991 5 20 6.39911 20 8.125C20 9.85089 21.3991 11.25 23.125 11.25C24.8509 11.25 26.25 9.85089 26.25 8.125C26.25 6.39911 24.8509 5 23.125 5ZM22.5 8.125C22.5 7.77982 22.7798 7.5 23.125 7.5C23.4702 7.5 23.75 7.77982 23.75 8.125C23.75 8.47018 23.4702 8.75 23.125 8.75C22.7798 8.75 22.5 8.47018 22.5 8.125Z" fill="white"/>
<path fill-rule="evenodd" clip-rule="evenodd" d="M10 8.125C10 6.39911 8.60089 5 6.875 5C5.14911 5 3.75 6.39911 3.75 8.125C3.75 9.85089 5.14911 11.25 6.875 11.25C8.60089 11.25 10 9.85089 10 8.125ZM6.875 7.5C7.22018 7.5 7.5 7.77982 7.5 8.125C7.5 8.47018 7.22018 8.75 6.875 8.75C6.52982 8.75 6.25 8.47018 6.25 8.125C6.25 7.77982 6.52982 7.5 6.875 7.5Z" fill="white"/>
<path fill-rule="evenodd" clip-rule="evenodd" d="M12.5 12.5C10.4289 12.5 8.75 14.1789 8.75 16.25V19.2275C8.75 20.1744 9.28501 21.04 10.132 21.4635L11.25 22.0225V26.25C11.25 26.9404 11.8096 27.5 12.5 27.5H17.5C18.1904 27.5 18.75 26.9404 18.75 26.25V22.0225L19.868 21.4635C20.715 21.04 21.25 20.1744 21.25 19.2275V16.25C21.25 14.1789 19.5711 12.5 17.5 12.5H12.5ZM11.25 16.25C11.25 15.5596 11.8096 15 12.5 15H17.5C18.1904 15 18.75 15.5596 18.75 16.25V19.2275L16.941 20.132C16.5175 20.3437 16.25 20.7765 16.25 21.25V25H13.75V21.25C13.75 20.7765 13.4825 20.3437 13.059 20.132L11.25 19.2275V16.25Z" fill="white"/>
<path d="M22.5 13.75C22.5 13.0596 23.0596 12.5 23.75 12.5H25C26.3807 12.5 27.5 13.6193 27.5 15V19.2275C27.5 20.1744 26.965 21.04 26.118 21.4635L25 22.0225V26.25C25 26.9404 24.4404 27.5 23.75 27.5H21.25C20.5596 27.5 20 26.9404 20 26.25C20 25.5596 20.5596 25 21.25 25H22.5V21.25C22.5 20.7765 22.7675 20.3437 23.191 20.132L25 19.2275V15H23.75C23.0596 15 22.5 14.4404 22.5 13.75Z" fill="white"/>
<path d="M6.25 12.5C6.94036 12.5 7.5 13.0596 7.5 13.75C7.5 14.4404 6.94036 15 6.25 15H5V19.2275L6.80902 20.132C7.2325 20.3437 7.5 20.7765 7.5 21.25V25H8.75C9.44036 25 10 25.5596 10 26.25C10 26.9404 9.44036 27.5 8.75 27.5H6.25C5.55964 27.5 5 26.9404 5 26.25V22.0225L3.88197 21.4635C3.03501 21.04 2.5 20.1744 2.5 19.2275V15C2.5 13.6193 3.61929 12.5 5 12.5H6.25Z" fill="white"/>
</g>
<defs>
<clipPath id="clip0_41_5216">
<rect width="25" height="25" fill="white" transform="translate(2.5 2.5)"/>
</clipPath>
</defs>
</svg>
