<svg width="48" height="48" viewBox="0 0 48 48" fill="none" xmlns="http://www.w3.org/2000/svg">
<path d="M6.375 10.875C6.375 8.38972 8.38972 6.375 10.875 6.375L37.125 6.375C39.6103 6.375 41.625 8.38972 41.625 10.875V37.125C41.625 39.6103 39.6103 41.625 37.125 41.625H10.875C8.38972 41.625 6.375 39.6103 6.375 37.125V10.875Z" fill="#FFF4D9" stroke="black" stroke-width="2.25"/>
<path fill-rule="evenodd" clip-rule="evenodd" d="M10.8749 41.625H37.1249C39.6102 41.625 41.6249 39.6103 41.6249 37.125V36.75C41.6249 27.75 39.7499 19.5 33.7499 19.5C29.9615 19.5 27.9449 23.6344 26.1754 27.2623C24.7921 30.0984 23.5597 32.625 21.7499 32.625C19.7323 32.625 18.7912 31.1895 17.8297 29.7229C16.8254 28.191 15.7988 26.625 13.4999 26.625C9.07272 26.625 6.46035 32.4324 6.37695 37.2625C6.44961 39.6841 8.4356 41.625 10.8749 41.625Z" fill="#699BF7"/>
<path d="M26.1754 27.2623L25.1642 26.7692L26.1754 27.2623ZM17.8297 29.7229L18.7705 29.1061L17.8297 29.7229ZM6.37695 37.2625L5.25212 37.243L5.25166 37.2696L5.25246 37.2962L6.37695 37.2625ZM10.8749 42.75H37.1249V40.5H10.8749V42.75ZM40.4999 37.125C40.4999 38.989 38.9889 40.5 37.1249 40.5V42.75C40.2315 42.75 42.7499 40.2316 42.7499 37.125H40.4999ZM42.7499 37.125V36.75H40.4999V37.125H42.7499ZM42.7499 36.75C42.7499 32.2015 42.28 27.7268 40.9882 24.3482C39.6937 20.9627 37.4272 18.375 33.7499 18.375V20.625C36.0726 20.625 37.7435 22.1623 38.8866 25.1518C40.0323 28.1482 40.4999 32.2985 40.4999 36.75H42.7499ZM33.7499 18.375C31.3814 18.375 29.6408 19.6883 28.3297 21.3146C27.036 22.9194 26.0353 24.9834 25.1642 26.7692L27.1865 27.7555C28.085 25.9134 28.9773 24.0962 30.0814 22.7268C31.168 21.3789 32.3299 20.625 33.7499 20.625V18.375ZM25.1642 26.7692C24.4587 28.2157 23.8484 29.4592 23.2084 30.3516C22.5462 31.2749 22.0791 31.5 21.7499 31.5V33.75C23.2305 33.75 24.2845 32.7118 25.0368 31.6628C25.8113 30.5829 26.5087 29.1451 27.1865 27.7555L25.1642 26.7692ZM21.7499 31.5C20.4201 31.5 19.7871 30.6567 18.7705 29.1061L16.8888 30.3396C17.7953 31.7224 19.0444 33.75 21.7499 33.75V31.5ZM18.7705 29.1061C17.8055 27.634 16.4751 25.5 13.4999 25.5V27.75C15.1225 27.75 15.8453 28.7479 16.8888 30.3396L18.7705 29.1061ZM13.4999 25.5C10.7292 25.5 8.66367 27.3258 7.34143 29.5593C6.01313 31.8031 5.29675 34.658 5.25212 37.243L7.50179 37.2819C7.54055 35.0368 8.17206 32.573 9.27759 30.7055C10.3892 28.8279 11.8434 27.75 13.4999 27.75V25.5ZM10.8749 40.5C9.04562 40.5 7.55592 39.0443 7.50145 37.2287L5.25246 37.2962C5.3433 40.324 7.82557 42.75 10.8749 42.75V40.5Z" fill="black"/>
<circle cx="16.5" cy="16.5" r="4.125" fill="#FFC700" stroke="black" stroke-width="2.25"/>
</svg>
