<svg width="17" height="18" viewBox="0 0 17 18" fill="none" xmlns="http://www.w3.org/2000/svg">
<path fill-rule="evenodd" clip-rule="evenodd" d="M8.49992 3C8.79332 3 9.03117 3.25184 9.03117 3.5625V8.4375H13.6353C13.9287 8.4375 14.1666 8.68934 14.1666 9C14.1666 9.31066 13.9287 9.5625 13.6353 9.5625H9.03117V14.4375C9.03117 14.7482 8.79332 15 8.49992 15C8.20652 15 7.96867 14.7482 7.96867 14.4375V9.5625H3.3645C3.0711 9.5625 2.83325 9.31066 2.83325 9C2.83325 8.68934 3.0711 8.4375 3.3645 8.4375H7.96867V3.5625C7.96867 3.25184 8.20652 3 8.49992 3Z" />
</svg>
