<svg width="24" height="24" viewBox="0 0 24 24" fill="none" xmlns="http://www.w3.org/2000/svg">
<path fill-rule="evenodd" clip-rule="evenodd" d="M3 6.25C2.58579 6.25 2.25 6.58579 2.25 7C2.25 7.41421 2.58579 7.75 3 7.75H21C21.4142 7.75 21.75 7.41421 21.75 7C21.75 6.58579 21.4142 6.25 21 6.25H16.75V3.6C16.75 2.85442 16.1456 2.25 15.4 2.25H8.6C7.85442 2.25 7.25 2.85442 7.25 3.6V6.25H3ZM15.25 3.75V6.25H8.75V3.75H15.25ZM5.75 11C5.75 10.5858 5.41421 10.25 5 10.25C4.58579 10.25 4.25 10.5858 4.25 11V20.4C4.25 21.1456 4.85441 21.75 5.6 21.75H18.4C19.1456 21.75 19.75 21.1456 19.75 20.4V11C19.75 10.5858 19.4142 10.25 19 10.25C18.5858 10.25 18.25 10.5858 18.25 11V20.25H5.75V11ZM10.75 11C10.75 10.5858 10.4142 10.25 10 10.25C9.58579 10.25 9.25 10.5858 9.25 11V17C9.25 17.4142 9.58579 17.75 10 17.75C10.4142 17.75 10.75 17.4142 10.75 17V11ZM14 10.25C14.4142 10.25 14.75 10.5858 14.75 11V17C14.75 17.4142 14.4142 17.75 14 17.75C13.5858 17.75 13.25 17.4142 13.25 17V11C13.25 10.5858 13.5858 10.25 14 10.25Z" />
</svg>
