<svg width="22" height="22" viewBox="0 0 22 22" fill="none" xmlns="http://www.w3.org/2000/svg">
<g clip-path="url(#clip0_92_11683)">
<path d="M21.6667 0.333008H0.333374V21.6663H21.6667V0.333008Z" fill="white" fill-opacity="0.01" stroke="none"/>
<path d="M11.0001 19.8881C15.9093 19.8881 19.889 15.9084 19.889 10.9992C19.889 6.09004 15.9093 2.11035 11.0001 2.11035C6.0909 2.11035 2.11121 6.09004 2.11121 10.9992C2.11121 15.9084 6.0909 19.8881 11.0001 19.8881Z"  stroke-width="1.77778" stroke-linecap="round" stroke-linejoin="round"/>
<path d="M11 2.11035C12.1673 2.11035 13.3232 2.34027 14.4016 2.78698C15.4801 3.23368 16.46 3.88844 17.2854 4.71385C18.1108 5.53924 18.7656 6.51915 19.2123 7.5976C19.659 8.67604 19.8889 9.83195 19.8889 10.9992H11V2.11035Z" fill="#2F88FF"  stroke-width="1.77778" stroke-linecap="round" stroke-linejoin="round"/>
</g>
<defs>
<clipPath id="clip0_92_11683">
<rect width="22" height="22" fill="white" />
</clipPath>
</defs>
</svg>
