<svg width="22" height="22" viewBox="0 0 22 22" fill="none" xmlns="http://www.w3.org/2000/svg">
<g clip-path="url(#clip0_92_11691)">
<path d="M21.6667 0.333008H0.333374V21.6663H21.6667V0.333008Z" fill="white" fill-opacity="0.01" stroke="none"/>
<path d="M11.0001 19.8881C15.9093 19.8881 19.889 15.9084 19.889 10.9992C19.889 6.09004 15.9093 2.11035 11.0001 2.11035C6.0909 2.11035 2.11121 6.09004 2.11121 10.9992C2.11121 15.9084 6.0909 19.8881 11.0001 19.8881Z"  stroke-width="1.77778" stroke-linecap="round" stroke-linejoin="round"/>
<path d="M11.0001 2.11035C12.7581 2.11035 14.4767 2.63168 15.9385 3.6084C17.4003 4.58512 18.5396 5.97337 19.2124 7.5976C19.8851 9.22186 20.0612 11.0091 19.7182 12.7334C19.3752 14.4576 18.5286 16.0415 17.2855 17.2846C16.0424 18.5278 14.4585 19.3744 12.7342 19.7173C11.01 20.0603 9.22272 19.8843 7.59845 19.2115C5.97423 18.5387 4.58598 17.3994 3.60926 15.9376C2.63253 14.4759 2.11121 12.7573 2.11121 10.9992H11.0001V2.11035Z" fill="#2F88FF"  stroke-width="1.77778" stroke-linecap="round" stroke-linejoin="round"/>
</g>
<defs>
<clipPath id="clip0_92_11691">
<rect width="22" height="22" fill="white"/>
</clipPath>
</defs>
</svg>
