<svg width="50" height="50" viewBox="0 0 50 50" fill="none" xmlns="http://www.w3.org/2000/svg">
<path fill-rule="evenodd" clip-rule="evenodd" d="M34.9998 20.0002H33.3332V16.6668C33.3332 12.0668 29.5998 8.3335 24.9998 8.3335C20.3998 8.3335 16.6665 12.0668 16.6665 16.6668V20.0002H14.9998C13.1665 20.0002 11.6665 21.5002 11.6665 23.3335V40.0002C11.6665 41.8335 13.1665 43.3335 14.9998 43.3335H34.9998C36.8332 43.3335 38.3332 41.8335 38.3332 40.0002V23.3335C38.3332 21.5002 36.8332 20.0002 34.9998 20.0002ZM24.9998 35.0002C23.1665 35.0002 21.6665 33.5002 21.6665 31.6668C21.6665 29.8335 23.1665 28.3335 24.9998 28.3335C26.8332 28.3335 28.3332 29.8335 28.3332 31.6668C28.3332 33.5002 26.8332 35.0002 24.9998 35.0002ZM19.9998 20.0002V16.6668C19.9998 13.9002 22.2332 11.6668 24.9998 11.6668C27.7665 11.6668 29.9998 13.9002 29.9998 16.6668V20.0002H19.9998Z" fill="#C3CAD9"/>
</svg>
