<svg width="42" height="42" viewBox="0 0 42 42" fill="none" xmlns="http://www.w3.org/2000/svg">
<path fill-rule="evenodd" clip-rule="evenodd" d="M11.1998 21.8293H26.8378L20.0058 28.6613C19.4598 29.2073 19.4598 30.1033 20.0058 30.6493C20.5518 31.1953 21.4338 31.1953 21.9798 30.6493L31.2058 21.4233C31.7518 20.8773 31.7518 19.9953 31.2058 19.4493L21.9938 10.2093C21.7322 9.94713 21.3771 9.7998 21.0068 9.7998C20.6365 9.7998 20.2814 9.94713 20.0198 10.2093C19.4738 10.7553 19.4738 11.6373 20.0198 12.1833L26.8378 19.0293H11.1998C10.4298 19.0293 9.7998 19.6593 9.7998 20.4293C9.7998 21.1993 10.4298 21.8293 11.1998 21.8293Z" fill="#BEBEBE"/>
</svg>
