<svg width="42" height="44" viewBox="0 0 42 44" fill="none" xmlns="http://www.w3.org/2000/svg">
<path d="M3.5 12.8335L17.7886 23.3118C18.9457 24.1603 19.5242 24.5846 20.1535 24.7489C20.7093 24.894 21.2907 24.894 21.8465 24.7489C22.4758 24.5846 23.0543 24.1603 24.2114 23.3118L38.5 12.8335M11.9 36.6668H30.1C33.0403 36.6668 34.5104 36.6668 35.6334 36.0674C36.6213 35.5401 37.4244 34.6987 37.9278 33.6638C38.5 32.4873 38.5 30.9471 38.5 27.8668V16.1335C38.5 13.0532 38.5 11.5131 37.9278 10.3365C37.4244 9.30166 36.6213 8.46026 35.6334 7.93296C34.5104 7.3335 33.0403 7.3335 30.1 7.3335H11.9C8.95972 7.3335 7.48959 7.3335 6.36655 7.93296C5.3787 8.46026 4.57555 9.30166 4.07222 10.3365C3.5 11.5131 3.5 13.0532 3.5 16.1335V27.8668C3.5 30.9471 3.5 32.4873 4.07222 33.6638C4.57555 34.6987 5.3787 35.5401 6.36655 36.0674C7.48959 36.6668 8.95972 36.6668 11.9 36.6668Z" stroke="#BEBEBE" stroke-width="2" stroke-linecap="round" stroke-linejoin="round"/>
</svg>
