<svg width="60" height="60" viewBox="0 0 60 60" fill="none" xmlns="http://www.w3.org/2000/svg">
<path fill-rule="evenodd" clip-rule="evenodd" d="M29.98 10C18.94 10 10 18.96 10 30C10 41.04 18.94 50 29.98 50C41.04 50 50 41.04 50 30C50 18.96 41.04 10 29.98 10ZM30 46C21.16 46 14 38.84 14 30C14 21.16 21.16 14 30 14C38.84 14 46 21.16 46 30C46 38.84 38.84 46 30 46ZM37 28C38.66 28 40 26.66 40 25C40 23.34 38.66 22 37 22C35.34 22 34 23.34 34 25C34 26.66 35.34 28 37 28ZM23 28C24.66 28 26 26.66 26 25C26 23.34 24.66 22 23 22C21.34 22 20 23.34 20 25C20 26.66 21.34 28 23 28ZM30 41C34.06 41 37.6 38.78 39.5 35.5C39.88 34.84 39.4 34 38.62 34H21.38C20.62 34 20.12 34.84 20.5 35.5C22.4 38.78 25.94 41 30 41Z" fill="#BEBEBE"/>
</svg>
