<svg width="37" height="37" viewBox="0 0 37 37" fill="none" xmlns="http://www.w3.org/2000/svg">
<path d="M27.7502 3.0835L33.9168 9.25016M3.0835 33.9168L5.05128 26.7016C5.17966 26.2309 5.24385 25.9955 5.3424 25.776C5.42989 25.5812 5.5374 25.3959 5.66319 25.2232C5.80487 25.0288 5.97738 24.8563 6.32239 24.5113L22.2531 8.58059C22.5583 8.27533 22.711 8.1227 22.887 8.06551C23.0418 8.01521 23.2085 8.01521 23.3634 8.06551C23.5394 8.1227 23.692 8.27533 23.9973 8.58059L28.4197 13.0031C28.725 13.3083 28.8776 13.461 28.9348 13.637C28.9851 13.7918 28.9851 13.9585 28.9348 14.1134C28.8776 14.2894 28.725 14.442 28.4197 14.7473L12.4891 30.6779C12.144 31.023 11.9715 31.1955 11.7771 31.3371C11.6044 31.4629 11.4192 31.5704 11.2243 31.6579C11.0048 31.7565 10.7694 31.8207 10.2987 31.949L3.0835 33.9168Z" stroke="#BEBEBE" stroke-width="2" stroke-linecap="round" stroke-linejoin="round"/>
</svg>
