<svg width="39" height="39" viewBox="0 0 39 39" fill="none" xmlns="http://www.w3.org/2000/svg">
<path d="M26 9.75V8.45C26 6.62983 26 5.71974 25.6458 5.02453C25.3342 4.413 24.837 3.91582 24.2255 3.60423C23.5303 3.25 22.6202 3.25 20.8 3.25H18.2C16.3798 3.25 15.4697 3.25 14.7745 3.60423C14.163 3.91582 13.6658 4.413 13.3542 5.02453C13 5.71974 13 6.62983 13 8.45V9.75M4.875 9.75H34.125M30.875 9.75V27.95C30.875 30.6803 30.875 32.0454 30.3437 33.0882C29.8763 34.0055 29.1305 34.7513 28.2132 35.2187C27.1704 35.75 25.8053 35.75 23.075 35.75H15.925C13.1947 35.75 11.8296 35.75 10.7868 35.2187C9.86951 34.7513 9.12373 34.0055 8.65634 33.0882C8.125 32.0454 8.125 30.6803 8.125 27.95V9.75" stroke="#BEBEBE" stroke-width="2" stroke-linecap="round" stroke-linejoin="round"/>
</svg>
