<svg width="24" height="24" viewBox="0 0 24 24" fill="none" xmlns="http://www.w3.org/2000/svg">
<path fill-rule="evenodd" clip-rule="evenodd" d="M14.8005 13.6003H14.1685L13.9445 13.3843C14.9045 12.2643 15.4005 10.7363 15.1285 9.1123C14.7525 6.8883 12.8965 5.11231 10.6565 4.84031C7.27255 4.42431 4.42455 7.27231 4.84055 10.6563C5.11255 12.8963 6.88855 14.7523 9.11255 15.1283C10.7365 15.4003 12.2645 14.9043 13.3845 13.9443L13.6005 14.1683V14.8003L17.0005 18.2003C17.3285 18.5283 17.8645 18.5283 18.1925 18.2003C18.5205 17.8723 18.5205 17.3363 18.1925 17.0083L14.8005 13.6003ZM10.0005 13.6003C8.00855 13.6003 6.40055 11.9923 6.40055 10.0003C6.40055 8.0083 8.00855 6.4003 10.0005 6.4003C11.9925 6.4003 13.6005 8.0083 13.6005 10.0003C13.6005 11.9923 11.9925 13.6003 10.0005 13.6003Z" fill="#555555"/>
</svg>
